# xmcd
#
# Track frame offsets:
#	150
#	14270
#	36485
#	56557
#	77582
#	101352
#	116257
#	131652
#	147162
#	166597
#	181159
#	190970
#	208762
#	224509
#
# Disc length: 3209 seconds
#
# Revision: 6
# Processed by: cddbd v1.5.2PL0 Copyright (c) Steve Scherf et al.
# Submitted via: EZCDAudioConverter 7.0.0.1
#
DISCID=be0c870e
DTITLE=CHITÃOZINHO and XORORÓ - CHITÃOZINHO and XORORÓ  EM FAMILIA [CD 536 585-2) 
DTITLE=POLYGRAM
DYEAR=1997
DGENRE=Country
TTITLE0=NOITE FELIZ (BY GILMAR SINISTRO)
TTITLE1=O HOMEM DE NAZARETH (BY GILMAR SINISTRO)
TTITLE2=PRESENTE DE NATAL (BY GILMAR SINISTRO)
TTITLE3=NATAL BRANCO (WHITE CHRISTMAS) (BY GILMAR SINISTRO)
TTITLE4=NOSSA SENHORA (DE ROBERTO E ERASMO) (BY GILMAR SINISTRO)
TTITLE5=CANTE A CANÇÃO (SING) (PART. ESP. SANDY and JUMIOR) (BY GILMAR SINISTRO)
TTITLE6=NATAL DAS CRIANÇAS - O VELHINHO - SINO DE BELÉM (BY GILMAR SINISTRO)
TTITLE7=RASTROS NA AREIA (PART. ESP. ROBERTA MIRANDA) (BY GILMAR SINISTRO)
TTITLE8=MEU SENHOR (MY SWEET LORD) (BY GILMAR SINISTRO)
TTITLE9=BOAS FESTAS (BY GILMAR SINISTRO)
TTITLE10=UM SINO FELIZ (JINGLE BELL ROCK) (PART. ESP. SANDY and JUNIOR) (BY GILM
TTITLE10=AR SINISTRO)
TTITLE11=UMA GRANDE FAMÍLIA (LA FAMILIA) 
TTITLE12=HINO DE REIS (BY GILMAR SINISTRO)
TTITLE13=SE UMA ESTRELA APARECER (WHEN YOU WISH UPON A STAR) - ADESTE FIDELIS 
TTITLE13=/ QUE SEJA UM NATAL FELIZ (I WISH YOU A MERRY CHRISTMAS) (PART. ESP. 
TTITLE13=SANDY and JUNIOR)
EXTD=
EXTT0=
EXTT1=
EXTT2=
EXTT3=
EXTT4=
EXTT5=
EXTT6=
EXTT7=
EXTT8=
EXTT9=
EXTT10=
EXTT11=
EXTT12=
EXTT13=
PLAYORDER=
